<svg width="538" height="77" viewBox="0 0 538 77" fill="none" xmlns="http://www.w3.org/2000/svg">
<path d="M24.85 7.01999L25.75 8.28C21.79 10.35 18.37 13.5 16.03 17.37L39.79 2.79C42.67 4.94999 45.82 6.75 49.06 8.19C50.95 9.08999 53.02 9.89999 55 10.53L57.88 8.19L58.6 9.08999L47.89 20.25C44.65 18.9 41.41 17.37 38.26 15.66C37.81 15.39 37.36 15.12 36.91 14.94C36.91 31.05 36.91 47.16 36.91 63.27C40.6 62.73 44.11 61.38 47.08 59.22C50.32 56.97 52.93 53.91 54.64 50.4H56.35C56.17 53.64 55.36 56.79 54.01 59.67C52.03 63.72 48.97 67.05 45.28 69.48C41.59 71.91 37.27 73.26 32.86 73.53C24.04 74.16 15.22 70.38 9.19 63.9C3.25 57.51 0.0100001 48.6 0.37 39.78C0.550001 32.58 3.16 25.38 7.48 19.62C11.8 13.77 18.01 9.36 24.85 7.01999ZM13.78 49.59L18.73 47.52C18.73 37.89 18.73 28.35 18.73 18.72L13.87 21.69C12.52 25.11 11.8 28.8 11.53 32.49C11.17 36.54 11.35 40.68 12.25 44.73C12.61 46.35 13.15 48.06 13.78 49.59ZM14.77 51.84C15.49 53.19 16.39 54.54 17.38 55.71C19.63 58.5 22.51 60.66 25.84 61.92C28.54 63.09 31.42 63.54 34.3 63.45C34.3 46.8 34.3 30.06 34.3 13.41C33.22 12.69 32.14 11.97 31.06 11.25L30.34 11.61V45.27L14.77 51.84ZM87.3142 61.74L89.4742 63.45L76.5142 72.45L67.8742 64.71L64.9042 66.87L63.5542 65.16L69.2242 61.29V37.53L66.1642 33.66L62.7442 35.82L61.3942 34.11L73.5442 25.92L80.3842 34.11V61.29L83.4442 64.26L87.3142 61.74ZM66.3442 13.77L74.8942 6.21L82.5442 14.94L73.9942 22.5L66.3442 13.77ZM107.881 61.29L112.111 65.52L115.171 63.9L116.431 65.61L104.011 72.09L94.5613 63.9L91.1413 66.06L89.7913 64.26L95.8213 60.39V38.43C95.8213 37.98 95.8213 37.53 95.7313 37.08C95.6413 36.63 95.4613 36.27 95.1913 35.82C94.8313 35.28 94.2013 34.83 93.5713 34.56C92.9413 34.2 92.2213 34.11 91.5013 34.11V32.85L106.171 18.09H107.881V28.44H118.591L114.361 33.39H107.881V61.29ZM144.619 61.74L146.779 63.45L133.819 72.45L125.179 64.71L122.209 66.87L120.859 65.16L126.529 61.29V37.53L123.469 33.66L120.049 35.82L118.699 34.11L130.849 25.92L137.689 34.11V61.29L140.749 64.26L144.619 61.74ZM123.649 13.77L132.199 6.21L139.849 14.94L131.299 22.5L123.649 13.77ZM157.266 59.94C160.956 58.86 164.736 58.41 168.516 58.68C172.836 58.95 177.156 60.12 181.026 62.1L183.636 59.13L184.896 59.94L175.446 71.64C172.836 70.47 170.226 69.57 167.526 68.94C163.836 68.13 159.966 67.86 156.276 68.67C153.666 69.3 151.236 70.47 149.076 72.09L148.266 71.19C148.896 69.03 149.796 66.87 150.876 64.89C153.126 60.39 156.276 56.43 159.516 52.65H153.396L151.236 54.81L149.976 53.55L157.266 44.91H166.446C168.426 42.57 170.406 40.32 172.386 37.98C168.876 39.06 165.186 39.51 161.586 39.15C158.436 38.88 155.376 37.98 152.586 36.72L150.426 40.14L148.716 39.24L155.556 26.37C157.986 27.27 160.416 28.08 162.936 28.62C166.356 29.52 169.956 29.97 173.556 29.52C176.616 29.16 179.676 28.08 182.376 26.37L183.186 27.63C180.936 31.68 178.236 35.46 175.266 38.97C173.646 41.04 171.936 42.93 170.226 44.91H176.796L178.866 42.75L180.216 44.01L172.836 52.65H163.386C162.216 53.91 161.136 55.26 160.056 56.61L157.266 59.94ZM188.668 66.24L187.048 64.26L191.368 60.84V37.08L212.878 25.92L221.968 39.69V40.14L202.528 52.2V56.07L213.328 63.45L223.228 55.71L224.578 57.87L206.038 72.9L192.628 63L188.668 66.24ZM202.528 50.04L212.068 44.01L204.238 32.76L202.528 33.75V50.04ZM274.228 61.74L275.938 64.26L262.528 73.35L253.438 65.16L256.498 62.1V39.96L250.018 34.38L246.148 37.44V62.1L250.018 65.61L241.378 73.35L231.028 65.16L234.538 62.1V38.25L231.028 34.38L227.608 36.54L226.348 34.74L238.858 26.19L245.788 33.93L255.598 26.19L265.858 34.92L269.638 31.86L271.258 33.75L266.848 37.35V60.84L270.718 64.26L274.228 61.74ZM311.695 24.57C309.355 23.58 307.375 21.6 306.385 19.17C305.395 16.74 305.305 13.95 306.205 11.52C306.925 9.54 308.185 7.74 309.805 6.39C311.425 5.04 313.405 4.05 315.475 3.51C317.725 2.97 320.065 2.88 322.405 3.15C324.745 3.51 326.995 4.14 329.245 4.86C332.485 5.94 335.815 7.2 339.235 7.92C341.845 8.55 344.455 9.36 347.155 9.45C348.055 9.45 349.045 9.36 349.855 9C350.215 8.73 350.575 8.46 350.845 8.1C351.115 7.65 351.295 7.29 351.385 6.75C351.385 6.3 351.295 5.75999 351.115 5.4C350.845 4.94999 350.485 4.49999 350.125 4.23C349.315 3.6 348.415 3.33 347.425 3.06C346.435 2.88 345.445 2.7 344.455 2.61V0.899998C345.625 0.809999 346.795 0.809999 347.875 0.899998C349.945 1.16999 352.105 1.71 353.905 2.7C355.795 3.68999 357.415 5.22 358.405 7.11C359.485 9.08999 359.755 11.52 359.215 13.77C358.585 16.02 357.145 17.91 355.165 19.26C353.545 20.34 351.565 21.06 349.495 21.24C348.775 21.33 347.965 21.42 347.155 21.42V32.22L353.185 38.25L347.155 44.28V57.96C347.875 57.51 348.415 57.06 349.045 56.61C352.375 53.82 354.985 50.22 356.605 46.17H358.315C358.495 50.31 357.505 54.45 355.615 58.14C353.455 62.19 350.215 65.61 346.255 67.95C342.295 70.29 337.795 71.55 333.205 71.73C324.835 72 316.375 68.49 310.705 62.28C305.035 56.07 302.335 47.25 303.865 39.06C304.855 33.93 307.375 29.16 311.065 25.47C314.755 21.87 319.525 19.44 324.655 18.54L325.555 19.89C321.595 22.5 318.445 26.19 316.465 30.51L336.265 22.05V49.41L320.425 56.07C321.685 57.33 323.125 58.41 324.655 59.22C328.435 61.38 332.935 62.19 337.255 61.65C339.865 61.38 342.385 60.57 344.635 59.4V44.19L338.785 38.25L344.635 32.31V21.24C344.275 21.24 343.825 21.15 343.465 21.06C339.415 20.52 335.455 19.35 331.495 18.45C327.445 17.46 323.485 16.29 319.435 15.48C317.815 15.12 316.105 14.94 314.485 15.3C313.585 15.48 312.865 15.84 312.145 16.38C311.515 16.83 310.975 17.55 310.615 18.36C310.255 19.26 310.255 20.25 310.615 21.24C310.975 22.14 311.695 22.86 312.595 23.31L311.695 24.57ZM315.295 33.57C313.855 38.16 313.765 43.29 315.295 47.88C316.105 50.13 317.275 52.29 318.715 54.18L324.655 51.66V29.61L315.295 33.57ZM389.746 61.74L391.906 63.45L378.946 72.45L370.306 64.71L367.336 66.87L365.986 65.16L371.656 61.29V37.53L368.596 33.66L365.176 35.82L363.826 34.11L375.976 25.92L382.816 34.11V61.29L385.876 64.26L389.746 61.74ZM368.776 13.77L377.326 6.21L384.976 14.94L376.426 22.5L368.776 13.77ZM436.143 65.34L426.243 73.35L417.333 65.61L421.113 62.1V39.96L414.903 34.29L410.943 36.63V62.1L414.813 65.61L406.173 73.35L395.823 65.16L399.333 62.1V38.25L395.823 34.38L392.403 36.54L391.143 34.74L403.653 26.19L410.223 33.57L422.013 26.19L431.013 33.84L443.343 26.19L452.703 34.2L455.673 31.86L457.293 33.75L452.793 37.44V60.03L457.023 64.26L460.893 61.38V64.71L447.573 73.35L438.663 65.61L442.443 62.1V39.96L436.233 34.29L431.463 37.17V61.2L436.143 65.34ZM463.59 66.24L461.97 64.26L466.29 60.84V37.08L487.8 25.92L496.89 39.69V40.14L477.45 52.2V56.07L488.25 63.45L498.15 55.71L499.5 57.87L480.96 72.9L467.55 63L463.59 66.24ZM477.45 50.04L486.99 44.01L479.16 32.76L477.45 33.75V50.04ZM537.45 26.1C537.18 29.43 536.37 32.76 534.93 35.73C534.3 37.26 533.4 38.7 532.41 40.05C531.51 41.04 530.61 41.94 529.62 42.84L537.36 48.51V62.1L519.63 72.9C518.73 71.28 517.2 69.93 515.49 69.3C514.59 68.94 513.69 68.67 512.79 68.76C511.8 68.76 510.9 69.03 510.09 69.57C509.55 69.93 509.1 70.47 508.92 71.1C508.65 71.73 508.65 72.45 508.83 73.08C509.1 73.62 509.46 74.07 510 74.34L509.1 76.77C506.94 75.87 505.14 74.16 504.24 72C503.34 69.84 503.34 67.41 503.97 65.16C505.05 61.92 507.39 59.31 509.82 56.88C510.54 56.16 511.26 55.44 512.07 54.72L505.23 49.32V36.72L523.86 25.92C524.76 27.36 526.02 28.53 527.55 29.25C528.45 29.61 529.44 29.88 530.52 29.88C531.51 29.88 532.5 29.52 533.31 28.98C534.21 28.26 534.75 27.27 534.93 26.1V26.19C534.93 26.19 534.93 26.19 534.93 26.1H537.45ZM520.8 50.4L517.56 53.19C515.49 54.99 513.51 56.79 511.62 58.59C510.72 59.49 509.82 60.39 509.01 61.29C510.54 60.12 512.43 59.4 514.41 59.22C516.39 59.13 518.37 59.49 520.17 60.39C522.6 61.56 524.67 63.63 525.75 66.15V54.45L520.8 50.4ZM520.53 47.34L527.19 41.58C528.27 40.68 529.44 39.69 530.34 38.52C530.61 38.16 530.88 37.8 531.15 37.44C530.16 37.89 529.08 38.16 528 38.34C526.11 38.61 524.22 38.34 522.42 37.53C519.9 36.45 517.83 34.29 516.84 31.77V43.47L520.53 47.34Z" fill="black"/>
</svg>