<svg width="300" height="13" viewBox="0 0 300 13" fill="none" xmlns="http://www.w3.org/2000/svg">
<path d="M0.447125 5.21231C0.483125 5.03231 0.555125 4.84031 0.675125 4.69631C0.783125 4.54031 0.939125 4.42031 1.11913 4.33631C1.40713 4.19231 1.74313 4.15631 2.05513 4.10831H2.06713V3.80831C2.06713 3.68831 2.06713 3.55631 2.10313 3.43631C2.13913 3.32831 2.19913 3.20831 2.27113 3.11231C2.41513 2.92031 2.61913 2.76431 2.78712 2.59631C3.08713 2.30831 3.39913 2.03231 3.72313 1.78031C3.56713 1.82831 3.41113 1.85231 3.25513 1.85231C3.18313 1.85231 3.12313 1.84031 3.06313 1.84031C2.78712 1.80431 2.52313 1.69631 2.25913 1.61231C2.06713 1.54031 1.86313 1.49231 1.65913 1.49231C1.58713 1.49231 1.51513 1.49231 1.44313 1.51631C1.29913 1.54031 1.16713 1.60031 1.05913 1.69631C0.939125 1.79231 0.855125 1.91231 0.807125 2.04431H0.531125C0.735125 1.51631 1.10713 1.04831 1.59913 0.760312C1.88713 0.592312 2.22313 0.484312 2.57113 0.484312C2.58313 0.484312 2.58313 0.484312 2.59513 0.484312C2.88313 0.484312 3.17113 0.544312 3.44713 0.616312C3.72313 0.688312 4.02313 0.772312 4.31113 0.784312C4.34713 0.784312 4.37113 0.784312 4.40713 0.784312C4.61113 0.784312 4.82713 0.748312 5.01913 0.688312C5.17513 0.628312 5.33113 0.568312 5.47513 0.472312L5.45113 0.796312C5.24713 0.928312 5.04313 1.06031 4.83913 1.19231C4.63513 1.32431 4.41913 1.45631 4.23913 1.62431C4.05913 1.79231 3.91513 1.98431 3.81913 2.21231C3.65113 2.57231 3.61513 2.96831 3.61513 3.35231V5.05631V7.32431C3.61513 7.51631 3.60313 7.70831 3.53113 7.87631C3.44713 8.04431 3.31513 8.17631 3.17113 8.28431C2.85913 8.52431 2.47513 8.66831 2.13913 8.88431C2.10313 8.90831 2.06713 8.93231 2.03113 8.95631C2.34313 8.95631 2.65513 9.00431 2.95513 9.04031C3.27913 9.08831 3.61513 9.13631 3.93913 9.16031C4.04713 9.10031 4.11913 9.00431 4.15513 8.89631C4.20313 8.77631 4.20313 8.65631 4.20313 8.53631V2.46431L6.53113 0.412312C6.91513 0.676312 7.33513 0.904312 7.76713 1.09631C7.97113 1.18031 8.18713 1.26431 8.40313 1.33631L8.77513 0.988312L9.11113 1.24031L7.64713 2.69231C7.32313 2.59631 7.01113 2.47631 6.71113 2.33231C6.42313 2.20031 6.15913 2.04431 5.89513 1.86431V4.06031H8.29513L6.92713 5.46431H5.89513V7.16831C5.31913 8.02031 4.65913 8.80031 3.92713 9.52031C3.74713 9.70031 3.56713 9.86831 3.38713 10.0243C3.25513 10.1563 3.11113 10.2883 2.95513 10.3723C2.87112 10.4203 2.78712 10.4563 2.69113 10.4683C2.60713 10.4923 2.51113 10.4923 2.41513 10.4923L1.70713 10.5043C1.65913 10.5163 1.61113 10.5163 1.56313 10.5283C1.50313 10.5283 1.45513 10.5523 1.41913 10.5763C1.37113 10.6003 1.33513 10.6483 1.31113 10.6843C1.28712 10.7323 1.26313 10.7803 1.26313 10.8283C1.25113 10.9003 1.25113 10.9843 1.27513 11.0563C1.29913 11.1403 1.34713 11.2003 1.39513 11.2603C1.50313 11.3803 1.64713 11.4643 1.80313 11.4883V11.8003C1.49113 11.8123 1.17913 11.7163 0.927125 11.5363C0.663125 11.3683 0.471125 11.1163 0.363125 10.8163C0.267125 10.5523 0.255125 10.2643 0.339125 10.0003C0.411125 9.72431 0.579125 9.48431 0.795125 9.30431C1.04713 9.11231 1.34713 9.01631 1.65913 8.98031C1.89913 8.62031 2.00713 8.17631 2.04313 7.73231C2.06713 7.49231 2.07913 7.25231 2.07913 7.00031C2.07913 6.76031 2.06713 6.53231 2.06713 6.29231C2.06713 6.00431 2.06713 5.71631 2.06713 5.44031C1.88713 5.44031 1.69513 5.44031 1.51513 5.44031C1.43113 5.44031 1.35913 5.44031 1.28712 5.45231C1.21513 5.46431 1.14313 5.48831 1.08313 5.53631C0.951125 5.60831 0.867125 5.74031 0.831125 5.89631C0.807125 5.99231 0.807125 6.10031 0.819125 6.19631H0.591125C0.483125 5.98031 0.411125 5.74031 0.411125 5.48831C0.411125 5.39231 0.423125 5.30831 0.447125 5.21231ZM8.71166 8.50031L9.08366 8.18831V5.38031C9.08366 5.29631 9.08366 5.21231 9.07166 5.12831C9.04766 5.04431 9.02366 4.96031 8.97566 4.88831C8.92766 4.81631 8.85566 4.76831 8.77166 4.73231C8.69966 4.69631 8.61566 4.68431 8.53166 4.70831C8.49566 4.70831 8.45966 4.72031 8.42366 4.73231C8.31566 4.76831 8.23166 4.82831 8.14766 4.88831L8.02766 4.72031L9.57566 3.72431C9.68366 3.77231 9.80366 3.82031 9.89966 3.89231C10.0557 4.01231 10.1877 4.14431 10.2957 4.30031C10.3797 4.43231 10.4397 4.56431 10.4757 4.72031C10.5117 4.86431 10.5237 5.00831 10.5237 5.16431V8.04431L11.2677 8.76431L11.8437 8.34431C11.8437 8.27231 11.8437 8.20031 11.8437 8.12831V7.75631V5.29631L11.2197 4.74431L12.3477 3.70031L13.1397 4.39631L13.5597 4.10831L13.7397 4.33631L13.2237 4.73231V7.60031V8.10431C13.2237 8.29631 13.2357 8.48831 13.3197 8.65631C13.3797 8.76431 13.4517 8.86031 13.5477 8.92031L13.9917 8.56031L14.2197 8.86031L12.7797 9.84431C12.5877 9.82031 12.3957 9.73631 12.2517 9.60431C12.0597 9.42431 11.9397 9.17231 11.8917 8.92031C11.8797 8.83631 11.8677 8.76431 11.8557 8.68031L10.3437 9.86831L8.71166 8.50031ZM16.5334 8.39231L16.9894 8.84831L17.3374 8.56031L17.5054 8.78831L16.0174 9.83231L14.7454 8.74031L14.2894 9.02831L14.1214 8.78831L14.9254 8.27231V2.81231C14.9254 2.75231 14.9254 2.69231 14.9014 2.63231C14.8894 2.57231 14.8654 2.51231 14.8414 2.46431C14.7814 2.39231 14.7094 2.33231 14.6254 2.29631C14.5294 2.24831 14.4454 2.21231 14.3494 2.17631V2.00831L16.3054 0.628312H16.5334V8.39231ZM19.9787 8.39231L20.4347 8.84831L20.7827 8.56031L20.9507 8.78831L19.4627 9.83231L18.1907 8.74031L17.7347 9.02831L17.5667 8.78831L18.3707 8.27231V2.81231C18.3707 2.75231 18.3707 2.69231 18.3467 2.63231C18.3347 2.57231 18.3107 2.51231 18.2867 2.46431C18.2267 2.39231 18.1547 2.33231 18.0707 2.29631C17.9747 2.24831 17.8907 2.21231 17.7947 2.17631V2.00831L19.7507 0.628312H19.9787V8.39231ZM26.412 4.99631V8.16431C26.412 8.32031 26.412 8.47631 26.436 8.63231C26.46 8.78831 26.508 8.94431 26.58 9.07631C26.628 9.18431 26.7 9.29231 26.724 9.40031C26.76 9.52031 26.76 9.64031 26.724 9.76031C26.7 9.88031 26.628 9.98831 26.532 10.0723C26.448 10.1563 26.34 10.2163 26.232 10.2763C26.124 10.3243 26.028 10.3963 25.932 10.4563L23.712 12.0283C23.496 11.7163 23.16 11.4763 22.788 11.4043C22.368 11.3083 21.912 11.4163 21.576 11.6683L21.408 11.5603C21.54 11.1763 21.792 10.8523 22.128 10.6123C22.452 10.3843 22.848 10.2403 23.244 10.2283C23.82 10.2163 24.396 10.4443 24.792 10.8643C24.876 10.8523 24.96 10.8283 25.032 10.7683C25.104 10.7203 25.152 10.6483 25.188 10.5643C25.224 10.4923 25.236 10.3963 25.236 10.3003C25.224 10.2163 25.212 10.1203 25.176 10.0363C25.116 9.86831 25.032 9.71231 24.96 9.54431C24.9 9.40031 24.852 9.24431 24.84 9.07631C24.828 9.06431 24.828 9.06431 24.828 9.05231L23.7 9.83231L21.984 8.62031V5.26031L21.54 4.73231L21.06 5.03231L20.88 4.80431L22.5 3.70031L23.412 4.80431V7.87631L24.816 8.75231C24.816 8.69231 24.816 8.64431 24.816 8.59631L24.804 5.26031L24.156 4.49231L25.32 3.70031L26.412 4.99631ZM38.3827 0.772312L38.1667 1.01231C38.0587 1.16831 37.9747 1.33631 37.9267 1.52831C37.8907 1.72031 37.8907 1.91231 37.8907 2.09231V2.46431V6.50831V6.80831C37.8907 7.12031 37.8667 7.44431 37.9387 7.75631C37.9987 8.05631 38.1667 8.33231 38.4067 8.51231L38.8147 8.18831L39.1627 8.58431L37.5667 9.86831C37.3267 9.71231 37.0987 9.54431 36.8947 9.35231C36.6067 9.12431 36.3547 8.86031 36.1147 8.58431L34.7827 9.74831C34.2547 9.29231 33.5707 9.04031 32.8867 9.04031C32.1067 9.05231 31.3387 9.38831 30.8107 9.94031H30.5827C30.7867 9.37631 31.1467 8.87231 31.6267 8.48831C31.7827 8.36831 31.9507 8.24831 32.1307 8.15231L33.4507 5.96831C33.1627 5.82431 32.8987 5.64431 32.6707 5.40431C32.3707 5.09231 32.1427 4.68431 32.0347 4.25231C31.9267 3.83231 31.9267 3.37631 32.0347 2.94431C32.1427 2.52431 32.3467 2.12831 32.6347 1.79231C33.1867 1.12031 34.0387 0.712312 34.9147 0.628312C35.7787 0.556312 36.6547 0.796312 37.3747 1.27631L38.1187 0.556312L38.3827 0.772312ZM36.1507 2.15231L34.2307 5.33231H36.3427V2.26031C36.2827 2.22431 36.2227 2.18831 36.1507 2.15231ZM35.8507 1.99631C35.5507 1.87631 35.2387 1.80431 34.9267 1.79231C34.5187 1.78031 34.1227 1.86431 33.7747 2.05631C33.4147 2.23631 33.1147 2.51231 32.9107 2.84831C32.6347 3.32831 32.5507 3.90431 32.6707 4.43231C32.7907 4.97231 33.1147 5.45231 33.5587 5.77631L35.8507 1.99631ZM33.4867 6.56831L32.6707 7.91231C32.8627 7.85231 33.0667 7.80431 33.2707 7.76831C34.0747 7.66031 34.9267 7.85231 35.6227 8.29631L36.3427 7.69631V6.56831H33.4867ZM40.1179 8.50031L40.4899 8.18831V5.38031C40.4899 5.29631 40.4899 5.21231 40.4779 5.12831C40.4539 5.04431 40.4299 4.96031 40.3819 4.88831C40.3339 4.81631 40.2619 4.76831 40.1779 4.73231C40.1059 4.69631 40.0219 4.68431 39.9379 4.70831C39.9019 4.70831 39.8659 4.72031 39.8299 4.73231C39.7219 4.76831 39.6379 4.82831 39.5539 4.88831L39.4339 4.72031L40.9819 3.72431C41.0899 3.77231 41.2099 3.82031 41.3059 3.89231C41.4619 4.01231 41.5939 4.14431 41.7019 4.30031C41.7859 4.43231 41.8459 4.56431 41.8819 4.72031C41.9179 4.86431 41.9299 5.00831 41.9299 5.16431V8.04431L42.6739 8.76431L43.2499 8.34431C43.2499 8.27231 43.2499 8.20031 43.2499 8.12831V7.75631V5.29631L42.6259 4.74431L43.7539 3.70031L44.5459 4.39631L44.9659 4.10831L45.1459 4.33631L44.6299 4.73231V7.60031V8.10431C44.6299 8.29631 44.6419 8.48831 44.7259 8.65631C44.7859 8.76431 44.8579 8.86031 44.9539 8.92031L45.3979 8.56031L45.6259 8.86031L44.1859 9.84431C43.9939 9.82031 43.8019 9.73631 43.6579 9.60431C43.4659 9.42431 43.3459 9.17231 43.2979 8.92031C43.2859 8.83631 43.2739 8.76431 43.2619 8.68031L41.7499 9.86831L40.1179 8.50031ZM48.0837 8.39231L48.6477 8.95631L49.0557 8.74031L49.2237 8.96831L47.5677 9.83231L46.3077 8.74031L45.8517 9.02831L45.6717 8.78831L46.4757 8.27231V5.34431C46.4757 5.28431 46.4757 5.22431 46.4637 5.16431C46.4517 5.10431 46.4277 5.05631 46.3917 4.99631C46.3437 4.92431 46.2597 4.86431 46.1757 4.82831C46.0917 4.78031 45.9957 4.76831 45.8997 4.76831V4.60031L47.8557 2.63231H48.0837V4.01231H49.5117L48.9477 4.67231H48.0837V8.39231ZM51.59 7.98431L52.97 8.90831V5.45231L51.59 4.54031V7.98431ZM49.634 9.01631L49.43 8.75231L50.042 8.26031C50.042 7.22831 50.042 6.19631 50.042 5.16431L52.742 3.61631L54.47 4.93631V8.21231L51.818 9.83231C51.254 9.42431 50.69 9.01631 50.138 8.60831L49.634 9.01631ZM61.0902 8.93231L59.7702 10.0003L58.5822 8.96831L59.0862 8.50031V5.54831L58.2582 4.79231L57.7302 5.10431V8.50031L58.2462 8.96831L57.0942 10.0003L55.7142 8.90831L56.1822 8.50031V5.32031L55.7142 4.80431L55.2582 5.09231L55.0902 4.85231L56.7582 3.71231L57.6342 4.69631L59.2062 3.71231L60.4062 4.73231L62.0502 3.71231L63.2982 4.78031L63.6942 4.46831L63.9102 4.72031L63.3102 5.21231V8.22431L63.8742 8.78831L64.3902 8.40431V8.84831L62.6142 10.0003L61.4262 8.96831L61.9302 8.50031V5.54831L61.1022 4.79231L60.4662 5.17631V8.38031L61.0902 8.93231ZM70.1618 8.50031L70.2218 8.74031L68.5538 9.88031L67.6298 8.96831L66.3698 9.88031C65.8778 9.82031 65.3978 9.58031 65.0858 9.19631C64.8698 8.93231 64.7378 8.58431 64.7498 8.23631C64.7618 8.00831 64.8458 7.79231 64.9658 7.58831C65.0738 7.39631 65.2298 7.22831 65.3978 7.08431C65.6378 6.86831 65.9018 6.70031 66.1898 6.54431C66.1298 6.52031 66.0698 6.49631 66.0098 6.47231C65.7338 6.34031 65.4818 6.16031 65.3138 5.90831C65.2298 5.77631 65.1698 5.62031 65.1578 5.45231C65.1458 5.30831 65.1818 5.16431 65.2418 5.02031C65.3018 4.88831 65.3978 4.78031 65.5058 4.67231C65.6258 4.57631 65.7698 4.49231 65.9138 4.42031L67.2338 3.73631L68.9978 4.87631L69.4898 4.48031L69.6938 4.74431L69.0698 5.24831V8.27231L69.6458 8.84831L70.1618 8.50031ZM67.5818 6.64031C67.5818 6.26831 67.5818 5.88431 67.5818 5.51231L66.0818 4.58831C65.9858 4.63631 65.9018 4.67231 65.8298 4.73231C65.7338 4.80431 65.6498 4.90031 65.5898 4.99631C65.5298 5.10431 65.5058 5.22431 65.5058 5.34431C65.5058 5.51231 65.5778 5.66831 65.6858 5.78831C65.8298 5.98031 66.0458 6.11231 66.2618 6.20831C66.4778 6.31631 66.7058 6.38831 66.9338 6.46031C67.1378 6.53231 67.3538 6.59231 67.5818 6.64031ZM67.5818 6.98831C67.3418 6.91631 67.1018 6.84431 66.8618 6.77231C66.7058 6.72431 66.5498 6.67631 66.3938 6.62831C66.3098 6.78431 66.2378 6.95231 66.2138 7.13231C66.1538 7.49231 66.2378 7.87631 66.4058 8.20031C66.4898 8.35631 66.5858 8.48831 66.7178 8.60831C66.8498 8.71631 67.0058 8.81231 67.1738 8.83631C67.3058 8.86031 67.4498 8.86031 67.5818 8.81231C67.5818 8.20031 67.5818 7.60031 67.5818 6.98831ZM72.8219 8.39231L73.3859 8.95631L73.7939 8.74031L73.9619 8.96831L72.3059 9.83231L71.0459 8.74031L70.5899 9.02831L70.4099 8.78831L71.2139 8.27231V5.34431C71.2139 5.28431 71.2139 5.22431 71.2019 5.16431C71.1899 5.10431 71.1659 5.05631 71.1299 4.99631C71.0819 4.92431 70.9979 4.86431 70.9139 4.82831C70.8299 4.78031 70.7339 4.76831 70.6379 4.76831V4.60031L72.5939 2.63231H72.8219V4.01231H74.2499L73.6859 4.67231H72.8219V8.39231ZM74.3123 9.05231L74.0963 8.78831L74.6723 8.33231V5.16431L77.5403 3.67631L78.7523 5.51231V5.57231L76.1603 7.18031V7.69631L77.6003 8.68031L78.9203 7.64831L79.1003 7.93631L76.6283 9.94031L74.8403 8.62031L74.3123 9.05231ZM76.1603 6.89231L77.4323 6.08831L76.3883 4.58831L76.1603 4.72031V6.89231ZM81.5203 4.12031V7.99631L82.7923 8.88431V5.27231L81.5203 4.12031ZM81.4363 4.03631L80.3083 3.01631L80.0683 3.05231V0.904312L84.2083 4.54031L84.6403 4.18031L84.8563 4.44431L84.3403 4.86431V8.26031L81.7123 9.80831L79.9723 8.63231V4.93631L81.4363 4.03631ZM88.7705 5.33231C88.8065 5.14031 88.8785 4.96031 88.9865 4.80431C89.1065 4.64831 89.2625 4.52831 89.4425 4.45631C89.6585 4.36031 89.9105 4.33631 90.1505 4.33631V3.92831C90.1505 3.73631 90.1505 3.54431 90.1985 3.35231C90.2465 3.16031 90.3305 2.99231 90.4505 2.83631C90.5585 2.68031 90.7145 2.56031 90.8705 2.44031C91.0265 2.33231 91.1945 2.23631 91.3505 2.12831C91.4465 2.06831 91.5305 2.00831 91.6265 1.93631C91.5185 1.96031 91.4105 1.98431 91.3025 1.98431C91.0505 2.00831 90.7985 1.98431 90.5465 1.93631C90.2945 1.88831 90.0425 1.82831 89.7905 1.81631C89.6225 1.81631 89.4665 1.84031 89.3225 1.91231C89.1545 1.99631 89.0225 2.12831 88.9505 2.29631H88.6745C88.8905 1.81631 89.1905 1.37231 89.5985 1.02431C89.7545 0.892312 89.9105 0.784312 90.0905 0.700312C90.2825 0.628312 90.4745 0.580312 90.6785 0.568312C90.9185 0.568312 91.1585 0.616312 91.3985 0.688312C91.6385 0.748312 91.8785 0.832312 92.1185 0.856312C92.3705 0.880312 92.6345 0.856312 92.8745 0.760312C93.0425 0.700312 93.1985 0.604312 93.3305 0.472312L93.3185 0.796312C93.1385 1.00031 92.9345 1.19231 92.7305 1.36031C92.6345 1.44431 92.5265 1.51631 92.4185 1.58831C92.3585 1.63631 92.2865 1.69631 92.2265 1.74431C92.0945 1.87631 91.9865 2.03231 91.9145 2.20031C91.7345 2.60831 91.6985 3.04031 91.6985 3.47231V5.17631V6.10031C91.6985 6.49631 91.6865 6.89231 91.5425 7.26431C91.4105 7.63631 91.1705 7.97231 90.8585 8.21231C90.5585 8.45231 90.1865 8.60831 89.8025 8.66831H89.4065C89.6225 8.56031 89.8145 8.38031 89.9345 8.16431C90.0785 7.90031 90.1265 7.60031 90.1385 7.30031C90.1625 7.00031 90.1505 6.71231 90.1505 6.41231C90.1505 6.16031 90.1505 5.90831 90.1505 5.65631C90.0305 5.65631 89.9105 5.65631 89.7905 5.65631C89.7305 5.65631 89.6585 5.65631 89.5985 5.66831C89.5385 5.68031 89.4665 5.70431 89.4065 5.72831C89.2985 5.78831 89.2025 5.89631 89.1545 6.01631C89.1065 6.12431 89.0945 6.24431 89.1185 6.35231H88.8905C88.7465 6.04031 88.6985 5.68031 88.7705 5.33231ZM92.4665 8.00831C93.1625 7.94831 93.8585 8.02031 94.5305 8.20031C95.0225 8.33231 95.5145 8.52431 95.9705 8.75231L96.3665 8.46431L96.5585 8.74031L94.7945 10.0483C93.9665 9.56831 93.0065 9.32831 92.0465 9.35231C91.0145 9.38831 89.9825 9.74831 89.1545 10.3603V10.1323C89.4785 9.55631 89.9345 9.06431 90.4865 8.70431C90.8705 8.45231 91.2905 8.26031 91.7345 8.15231C91.8305 8.04431 91.9025 7.93631 91.9745 7.81631C92.1185 7.54031 92.1785 7.21631 92.2025 6.90431C92.2265 6.59231 92.2145 6.26831 92.2145 5.95631V5.28431V4.16831C92.2145 3.82031 92.2145 3.46031 92.2505 3.11231C92.2985 2.75231 92.3825 2.40431 92.5625 2.09231C92.7425 1.76831 93.0185 1.48031 93.3305 1.26431C93.8345 0.916312 94.4345 0.748312 95.0345 0.628312L95.2145 0.592312V0.724312L94.9625 0.844312C94.7585 0.940312 94.5665 1.03631 94.3985 1.16831C94.2305 1.28831 94.0865 1.45631 93.9905 1.64831C93.8825 1.82831 93.8225 2.04431 93.7985 2.24831C93.7745 2.46431 93.7625 2.68031 93.7625 2.88431V3.82031V5.89631C93.7625 6.14831 93.7505 6.40031 93.6785 6.62831C93.5945 6.86831 93.4625 7.08431 93.2945 7.26431C93.0545 7.54031 92.7665 7.78031 92.4665 8.00831ZM102.424 8.50031L102.484 8.74031L100.816 9.88031L99.8915 8.96831L98.6315 9.88031C98.1395 9.82031 97.6595 9.58031 97.3475 9.19631C97.1315 8.93231 96.9995 8.58431 97.0115 8.23631C97.0235 8.00831 97.1075 7.79231 97.2275 7.58831C97.3355 7.39631 97.4915 7.22831 97.6595 7.08431C97.8995 6.86831 98.1635 6.70031 98.4515 6.54431C98.3915 6.52031 98.3315 6.49631 98.2715 6.47231C97.9955 6.34031 97.7435 6.16031 97.5755 5.90831C97.4915 5.77631 97.4315 5.62031 97.4195 5.45231C97.4075 5.30831 97.4435 5.16431 97.5035 5.02031C97.5635 4.88831 97.6595 4.78031 97.7675 4.67231C97.8875 4.57631 98.0315 4.49231 98.1755 4.42031L99.4955 3.73631L101.26 4.87631L101.752 4.48031L101.956 4.74431L101.332 5.24831V8.27231L101.908 8.84831L102.424 8.50031ZM99.8435 6.64031C99.8435 6.26831 99.8435 5.88431 99.8435 5.51231L98.3435 4.58831C98.2475 4.63631 98.1635 4.67231 98.0915 4.73231C97.9955 4.80431 97.9115 4.90031 97.8515 4.99631C97.7915 5.10431 97.7675 5.22431 97.7675 5.34431C97.7675 5.51231 97.8395 5.66831 97.9475 5.78831C98.0915 5.98031 98.3075 6.11231 98.5235 6.20831C98.7395 6.31631 98.9675 6.38831 99.1955 6.46031C99.3995 6.53231 99.6155 6.59231 99.8435 6.64031ZM99.8435 6.98831C99.6035 6.91631 99.3635 6.84431 99.1235 6.77231C98.9675 6.72431 98.8115 6.67631 98.6555 6.62831C98.5715 6.78431 98.4995 6.95231 98.4755 7.13231C98.4155 7.49231 98.4995 7.87631 98.6675 8.20031C98.7515 8.35631 98.8475 8.48831 98.9795 8.60831C99.1115 8.71631 99.2675 8.81231 99.4355 8.83631C99.5675 8.86031 99.7115 8.86031 99.8435 8.81231C99.8435 8.20031 99.8435 7.60031 99.8435 6.98831ZM106.08 8.45231L106.368 8.68031L104.64 9.88031L103.488 8.84831L103.092 9.13631L102.912 8.90831L103.668 8.39231V5.22431L103.26 4.70831L102.804 4.99631L102.624 4.76831L104.244 3.67631L105.156 4.76831V8.39231L105.564 8.78831L106.08 8.45231ZM103.284 2.05631L104.424 1.04831L105.444 2.21231L104.304 3.22031L103.284 2.05631ZM111.09 3.70031C111.054 4.14431 110.946 4.58831 110.754 4.98431C110.67 5.18831 110.55 5.38031 110.418 5.56031C110.298 5.69231 110.178 5.81231 110.046 5.93231L111.078 6.68831V8.50031L108.714 9.94031C108.594 9.72431 108.39 9.54431 108.162 9.46031C108.042 9.41231 107.922 9.37631 107.802 9.38831C107.67 9.38831 107.55 9.42431 107.442 9.49631C107.37 9.54431 107.31 9.61631 107.286 9.70031C107.25 9.78431 107.25 9.88031 107.274 9.96431C107.31 10.0363 107.358 10.0963 107.43 10.1323L107.31 10.4563C107.022 10.3363 106.782 10.1083 106.662 9.82031C106.542 9.53231 106.542 9.20831 106.626 8.90831C106.77 8.47631 107.082 8.12831 107.406 7.80431C107.502 7.70831 107.598 7.61231 107.706 7.51631L106.794 6.79631V5.11631L109.278 3.67631C109.398 3.86831 109.566 4.02431 109.77 4.12031C109.89 4.16831 110.022 4.20431 110.166 4.20431C110.298 4.20431 110.43 4.15631 110.538 4.08431C110.658 3.98831 110.73 3.85631 110.754 3.70031V3.71231C110.754 3.71231 110.754 3.71231 110.754 3.70031H111.09ZM108.87 6.94031L108.438 7.31231C108.162 7.55231 107.898 7.79231 107.646 8.03231C107.526 8.15231 107.406 8.27231 107.298 8.39231C107.502 8.23631 107.754 8.14031 108.018 8.11631C108.282 8.10431 108.546 8.15231 108.786 8.27231C109.11 8.42831 109.386 8.70431 109.53 9.04031V7.48031L108.87 6.94031ZM108.834 6.53231L109.722 5.76431C109.866 5.64431 110.022 5.51231 110.142 5.35631C110.178 5.30831 110.214 5.26031 110.25 5.21231C110.118 5.27231 109.974 5.30831 109.83 5.33231C109.578 5.36831 109.326 5.33231 109.086 5.22431C108.75 5.08031 108.474 4.79231 108.342 4.45631V6.01631L108.834 6.53231ZM116.551 3.70031C116.515 4.14431 116.407 4.58831 116.215 4.98431C116.131 5.18831 116.011 5.38031 115.879 5.56031C115.759 5.69231 115.639 5.81231 115.507 5.93231L116.539 6.68831V8.50031L114.175 9.94031C114.055 9.72431 113.851 9.54431 113.623 9.46031C113.503 9.41231 113.383 9.37631 113.263 9.38831C113.131 9.38831 113.011 9.42431 112.903 9.49631C112.831 9.54431 112.771 9.61631 112.747 9.70031C112.711 9.78431 112.711 9.88031 112.735 9.96431C112.771 10.0363 112.819 10.0963 112.891 10.1323L112.771 10.4563C112.483 10.3363 112.243 10.1083 112.123 9.82031C112.003 9.53231 112.003 9.20831 112.087 8.90831C112.231 8.47631 112.543 8.12831 112.867 7.80431C112.963 7.70831 113.059 7.61231 113.167 7.51631L112.255 6.79631V5.11631L114.739 3.67631C114.859 3.86831 115.027 4.02431 115.231 4.12031C115.351 4.16831 115.483 4.20431 115.627 4.20431C115.759 4.20431 115.891 4.15631 115.999 4.08431C116.119 3.98831 116.191 3.85631 116.215 3.70031V3.71231C116.215 3.71231 116.215 3.71231 116.215 3.70031H116.551ZM114.331 6.94031L113.899 7.31231C113.623 7.55231 113.359 7.79231 113.107 8.03231C112.987 8.15231 112.867 8.27231 112.759 8.39231C112.963 8.23631 113.215 8.14031 113.479 8.11631C113.743 8.10431 114.007 8.15231 114.247 8.27231C114.571 8.42831 114.847 8.70431 114.991 9.04031V7.48031L114.331 6.94031ZM114.295 6.53231L115.183 5.76431C115.327 5.64431 115.483 5.51231 115.603 5.35631C115.639 5.30831 115.675 5.26031 115.711 5.21231C115.579 5.27231 115.435 5.30831 115.291 5.33231C115.039 5.36831 114.787 5.33231 114.547 5.22431C114.211 5.08031 113.935 4.79231 113.803 4.45631V6.01631L114.295 6.53231ZM117.332 9.05231L117.116 8.78831L117.692 8.33231V5.16431L120.56 3.67631L121.772 5.51231V5.57231L119.18 7.18031V7.69631L120.62 8.68031L121.94 7.64831L122.12 7.93631L119.648 9.94031L117.86 8.62031L117.332 9.05231ZM119.18 6.89231L120.452 6.08831L119.408 4.58831L119.18 4.72031V6.89231ZM123.856 8.21231C124.348 8.06831 124.852 8.00831 125.356 8.04431C125.932 8.08031 126.508 8.23631 127.024 8.50031L127.372 8.10431L127.54 8.21231L126.28 9.77231C125.932 9.61631 125.584 9.49631 125.224 9.41231C124.732 9.30431 124.216 9.26831 123.724 9.37631C123.376 9.46031 123.052 9.61631 122.764 9.83231L122.656 9.71231C122.74 9.42431 122.86 9.13631 123.004 8.87231C123.304 8.27231 123.724 7.74431 124.156 7.24031H123.34L123.052 7.52831L122.884 7.36031L123.856 6.20831H125.08C125.344 5.89631 125.608 5.59631 125.872 5.28431C125.404 5.42831 124.912 5.48831 124.432 5.44031C124.012 5.40431 123.604 5.28431 123.232 5.11631L122.944 5.57231L122.716 5.45231L123.628 3.73631C123.952 3.85631 124.276 3.96431 124.612 4.03631C125.068 4.15631 125.548 4.21631 126.028 4.15631C126.436 4.10831 126.844 3.96431 127.204 3.73631L127.312 3.90431C127.012 4.44431 126.652 4.94831 126.256 5.41631C126.04 5.69231 125.812 5.94431 125.584 6.20831H126.46L126.736 5.92031L126.916 6.08831L125.932 7.24031H124.672C124.516 7.40831 124.372 7.58831 124.228 7.76831L123.856 8.21231ZM133.467 4.22831L132.003 5.86031H128.355L128.067 6.14831L127.899 5.98031L129.363 4.33631H133.023L133.299 4.06031L133.467 4.22831ZM134.392 5.21231C134.428 5.03231 134.5 4.84031 134.62 4.69631C134.728 4.54031 134.884 4.42031 135.064 4.33631C135.352 4.19231 135.688 4.15631 136 4.10831H136.012V3.80831C136.012 3.68831 136.012 3.55631 136.048 3.43631C136.084 3.32831 136.144 3.20831 136.216 3.11231C136.36 2.92031 136.564 2.76431 136.732 2.59631C137.032 2.30831 137.344 2.03231 137.668 1.78031C137.512 1.82831 137.356 1.85231 137.2 1.85231C137.128 1.85231 137.068 1.84031 137.008 1.84031C136.732 1.80431 136.468 1.69631 136.204 1.61231C136.012 1.54031 135.808 1.49231 135.604 1.49231C135.532 1.49231 135.46 1.49231 135.388 1.51631C135.244 1.54031 135.112 1.60031 135.004 1.69631C134.884 1.79231 134.8 1.91231 134.752 2.04431H134.476C134.68 1.51631 135.052 1.04831 135.544 0.760312C135.832 0.592312 136.168 0.484312 136.516 0.484312C136.528 0.484312 136.528 0.484312 136.54 0.484312C136.828 0.484312 137.116 0.544312 137.392 0.616312C137.668 0.688312 137.968 0.772312 138.256 0.784312C138.292 0.784312 138.316 0.784312 138.352 0.784312C138.556 0.784312 138.772 0.748312 138.964 0.688312C139.12 0.628312 139.276 0.568312 139.42 0.472312L139.396 0.796312C139.192 0.928312 138.988 1.06031 138.784 1.19231C138.58 1.32431 138.364 1.45631 138.184 1.62431C138.004 1.79231 137.86 1.98431 137.764 2.21231C137.596 2.57231 137.56 2.96831 137.56 3.35231V5.05631V7.32431C137.56 7.51631 137.548 7.70831 137.476 7.87631C137.392 8.04431 137.26 8.17631 137.116 8.28431C136.804 8.52431 136.42 8.66831 136.084 8.88431C136.048 8.90831 136.012 8.93231 135.976 8.95631C136.288 8.95631 136.6 9.00431 136.9 9.04031C137.224 9.08831 137.56 9.13631 137.884 9.16031C137.992 9.10031 138.064 9.00431 138.1 8.89631C138.148 8.77631 138.148 8.65631 138.148 8.53631V2.46431L140.476 0.412312C140.86 0.676312 141.28 0.904312 141.712 1.09631C141.916 1.18031 142.132 1.26431 142.348 1.33631L142.72 0.988312L143.056 1.24031L141.592 2.69231C141.268 2.59631 140.956 2.47631 140.656 2.33231C140.368 2.20031 140.104 2.04431 139.84 1.86431V4.06031H142.24L140.872 5.46431H139.84V7.16831C139.264 8.02031 138.604 8.80031 137.872 9.52031C137.692 9.70031 137.512 9.86831 137.332 10.0243C137.2 10.1563 137.056 10.2883 136.9 10.3723C136.816 10.4203 136.732 10.4563 136.636 10.4683C136.552 10.4923 136.456 10.4923 136.36 10.4923L135.652 10.5043C135.604 10.5163 135.556 10.5163 135.508 10.5283C135.448 10.5283 135.4 10.5523 135.364 10.5763C135.316 10.6003 135.28 10.6483 135.256 10.6843C135.232 10.7323 135.208 10.7803 135.208 10.8283C135.196 10.9003 135.196 10.9843 135.22 11.0563C135.244 11.1403 135.292 11.2003 135.34 11.2603C135.448 11.3803 135.592 11.4643 135.748 11.4883V11.8003C135.436 11.8123 135.124 11.7163 134.872 11.5363C134.608 11.3683 134.416 11.1163 134.308 10.8163C134.212 10.5523 134.2 10.2643 134.284 10.0003C134.356 9.72431 134.524 9.48431 134.74 9.30431C134.992 9.11231 135.292 9.01631 135.604 8.98031C135.844 8.62031 135.952 8.17631 135.988 7.73231C136.012 7.49231 136.024 7.25231 136.024 7.00031C136.024 6.76031 136.012 6.53231 136.012 6.29231C136.012 6.00431 136.012 5.71631 136.012 5.44031C135.832 5.44031 135.64 5.44031 135.46 5.44031C135.376 5.44031 135.304 5.44031 135.232 5.45231C135.16 5.46431 135.088 5.48831 135.028 5.53631C134.896 5.60831 134.812 5.74031 134.776 5.89631C134.752 5.99231 134.752 6.10031 134.764 6.19631H134.536C134.428 5.98031 134.356 5.74031 134.356 5.48831C134.356 5.39231 134.368 5.30831 134.392 5.21231ZM147.529 8.50031L147.589 8.74031L145.921 9.88031L144.997 8.96831L143.737 9.88031C143.245 9.82031 142.765 9.58031 142.453 9.19631C142.237 8.93231 142.105 8.58431 142.117 8.23631C142.129 8.00831 142.213 7.79231 142.333 7.58831C142.441 7.39631 142.597 7.22831 142.765 7.08431C143.005 6.86831 143.269 6.70031 143.557 6.54431C143.497 6.52031 143.437 6.49631 143.377 6.47231C143.101 6.34031 142.849 6.16031 142.681 5.90831C142.597 5.77631 142.537 5.62031 142.525 5.45231C142.513 5.30831 142.549 5.16431 142.609 5.02031C142.669 4.88831 142.765 4.78031 142.873 4.67231C142.993 4.57631 143.137 4.49231 143.281 4.42031L144.601 3.73631L146.365 4.87631L146.857 4.48031L147.061 4.74431L146.437 5.24831V8.27231L147.013 8.84831L147.529 8.50031ZM144.949 6.64031C144.949 6.26831 144.949 5.88431 144.949 5.51231L143.449 4.58831C143.353 4.63631 143.269 4.67231 143.197 4.73231C143.101 4.80431 143.017 4.90031 142.957 4.99631C142.897 5.10431 142.873 5.22431 142.873 5.34431C142.873 5.51231 142.945 5.66831 143.053 5.78831C143.197 5.98031 143.413 6.11231 143.629 6.20831C143.845 6.31631 144.073 6.38831 144.301 6.46031C144.505 6.53231 144.721 6.59231 144.949 6.64031ZM144.949 6.98831C144.709 6.91631 144.469 6.84431 144.229 6.77231C144.073 6.72431 143.917 6.67631 143.761 6.62831C143.677 6.78431 143.605 6.95231 143.581 7.13231C143.521 7.49231 143.605 7.87631 143.773 8.20031C143.857 8.35631 143.953 8.48831 144.085 8.60831C144.217 8.71631 144.373 8.81231 144.541 8.83631C144.673 8.86031 144.817 8.86031 144.949 8.81231C144.949 8.20031 144.949 7.60031 144.949 6.98831ZM151.185 8.45231L151.473 8.68031L149.745 9.88031L148.593 8.84831L148.197 9.13631L148.017 8.90831L148.773 8.39231V5.22431L148.365 4.70831L147.909 4.99631L147.729 4.76831L149.349 3.67631L150.261 4.76831V8.39231L150.669 8.78831L151.185 8.45231ZM148.389 2.05631L149.529 1.04831L150.549 2.21231L149.409 3.22031L148.389 2.05631ZM155.115 8.32031L155.343 8.58431L153.543 9.88031L152.223 8.84831L151.827 9.13631L151.647 8.90831L152.403 8.39231V5.22431L151.995 4.70831L151.539 4.99631L151.371 4.76831L152.979 3.67631L153.855 4.62431L154.695 3.66431H154.815C154.923 3.84431 155.127 3.96431 155.331 3.96431C155.451 3.96431 155.559 3.94031 155.655 3.89231C155.751 3.84431 155.835 3.76031 155.895 3.66431H156.255C156.231 3.89231 156.195 4.12031 156.135 4.33631C156.075 4.52831 156.003 4.70831 155.907 4.87631C155.799 5.03231 155.655 5.17631 155.475 5.26031C155.331 5.32031 155.175 5.35631 155.019 5.34431C154.875 5.34431 154.719 5.29631 154.575 5.23631C154.359 5.15231 154.167 5.02031 153.987 4.85231V8.39231L154.467 8.76431L155.115 8.32031ZM160.94 6.56831C160.772 6.26831 160.712 5.89631 160.796 5.56031C160.832 5.38031 160.916 5.20031 161.024 5.05631C161.144 4.91231 161.3 4.80431 161.468 4.72031C161.684 4.61231 161.924 4.57631 162.152 4.54031V4.04831C162.152 3.89231 162.164 3.72431 162.212 3.55631C162.26 3.40031 162.344 3.25631 162.44 3.11231C162.752 2.71631 163.172 2.40431 163.592 2.10431C163.316 2.15231 163.04 2.17631 162.752 2.16431C162.296 2.14031 161.84 2.03231 161.384 2.08031C161.192 2.10431 161 2.16431 160.844 2.28431C160.676 2.39231 160.556 2.56031 160.52 2.75231C160.496 2.89631 160.532 3.05231 160.604 3.18431C160.676 3.30431 160.796 3.40031 160.928 3.44831L160.88 3.54431C160.544 3.43631 160.256 3.18431 160.076 2.88431C159.896 2.57231 159.824 2.20031 159.884 1.84031C159.956 1.43231 160.196 1.06031 160.544 0.820312C160.88 0.580312 161.312 0.484312 161.72 0.496312C162.092 0.520312 162.464 0.604312 162.824 0.688312C163.184 0.784312 163.556 0.856312 163.928 0.832312C164.348 0.808312 164.756 0.664312 165.092 0.412312L165.356 0.652312C165.044 0.892312 164.732 1.13231 164.444 1.39631C164.228 1.62431 164.012 1.86431 163.892 2.15231C163.76 2.44031 163.736 2.75231 163.736 3.06431V8.23631C163.736 8.50031 163.724 8.75231 163.64 8.99231C163.544 9.23231 163.388 9.43631 163.196 9.60431C162.752 10.0243 162.176 10.2523 161.576 10.3843V9.98831C161.72 9.95231 161.852 9.88031 161.948 9.78431C162.02 9.71231 162.08 9.62831 162.116 9.53231C162.152 9.43631 162.152 9.32831 162.152 9.22031V5.87231C162.056 5.87231 161.96 5.87231 161.864 5.87231C161.78 5.87231 161.708 5.87231 161.636 5.88431C161.564 5.89631 161.492 5.92031 161.432 5.95631C161.312 6.04031 161.216 6.16031 161.18 6.30431C161.156 6.38831 161.156 6.48431 161.168 6.56831H160.94ZM166.34 0.784312L166.196 0.640312C166.112 0.700312 166.028 0.760312 165.944 0.820312C165.5 1.15631 165.032 1.45631 164.708 1.91231C164.492 2.22431 164.36 2.58431 164.312 2.96831C164.252 3.34031 164.252 3.72431 164.252 4.09631V7.99631C164.252 8.39231 164.24 8.80031 164.096 9.17231C163.964 9.54431 163.724 9.88031 163.412 10.1323C163.148 10.3603 162.836 10.5283 162.488 10.6123C162.152 10.6963 161.792 10.7083 161.456 10.6123C160.952 10.4803 160.52 10.1203 160.304 9.64031C160.556 9.77231 160.88 9.74831 161.12 9.59231C161.24 9.52031 161.348 9.41231 161.42 9.29231C161.48 9.17231 161.528 9.02831 161.528 8.88431C161.528 8.64431 161.432 8.40431 161.264 8.23631C161.084 8.06831 160.844 7.97231 160.604 7.97231C160.34 7.97231 160.088 8.09231 159.896 8.27231C159.716 8.45231 159.596 8.70431 159.56 8.95631C159.524 9.31631 159.62 9.67631 159.812 9.97631C160.016 10.2643 160.292 10.5043 160.616 10.6603C161.24 10.9723 161.984 11.0203 162.68 10.9003C163.256 10.8043 163.808 10.6003 164.288 10.2763C164.864 9.89231 165.32 9.34031 165.56 8.69231C165.812 8.05631 165.836 7.36031 165.836 6.66431V3.11231C165.836 2.71631 165.848 2.30831 165.92 1.91231C166.004 1.51631 166.136 1.13231 166.34 0.784312ZM168.789 7.98431L170.169 8.90831V5.45231L168.789 4.54031V7.98431ZM166.833 9.01631L166.629 8.75231L167.241 8.26031C167.241 7.22831 167.241 6.19631 167.241 5.16431L169.941 3.61631L171.669 4.93631V8.21231L169.017 9.83231C168.453 9.42431 167.889 9.01631 167.337 8.60831L166.833 9.01631ZM172.973 8.50031L173.345 8.18831V5.38031C173.345 5.29631 173.345 5.21231 173.333 5.12831C173.309 5.04431 173.285 4.96031 173.237 4.88831C173.189 4.81631 173.117 4.76831 173.033 4.73231C172.961 4.69631 172.877 4.68431 172.793 4.70831C172.757 4.70831 172.721 4.72031 172.685 4.73231C172.577 4.76831 172.493 4.82831 172.409 4.88831L172.289 4.72031L173.837 3.72431C173.945 3.77231 174.065 3.82031 174.161 3.89231C174.317 4.01231 174.449 4.14431 174.557 4.30031C174.641 4.43231 174.701 4.56431 174.737 4.72031C174.773 4.86431 174.785 5.00831 174.785 5.16431V8.04431L175.529 8.76431L176.105 8.34431C176.105 8.27231 176.105 8.20031 176.105 8.12831V7.75631V5.29631L175.481 4.74431L176.609 3.70031L177.401 4.39631L177.821 4.10831L178.001 4.33631L177.485 4.73231V7.60031V8.10431C177.485 8.29631 177.497 8.48831 177.581 8.65631C177.641 8.76431 177.713 8.86031 177.809 8.92031L178.253 8.56031L178.481 8.86031L177.041 9.84431C176.849 9.82031 176.657 9.73631 176.513 9.60431C176.321 9.42431 176.201 9.17231 176.153 8.92031C176.141 8.83631 176.129 8.76431 176.117 8.68031L174.605 9.86831L172.973 8.50031ZM182.127 8.32031L182.355 8.58431L180.555 9.88031L179.235 8.84831L178.839 9.13631L178.659 8.90831L179.415 8.39231V5.22431L179.007 4.70831L178.551 4.99631L178.383 4.76831L179.991 3.67631L180.867 4.62431L181.707 3.66431H181.827C181.935 3.84431 182.139 3.96431 182.343 3.96431C182.463 3.96431 182.571 3.94031 182.667 3.89231C182.763 3.84431 182.847 3.76031 182.907 3.66431H183.267C183.243 3.89231 183.207 4.12031 183.147 4.33631C183.087 4.52831 183.015 4.70831 182.919 4.87631C182.811 5.03231 182.667 5.17631 182.487 5.26031C182.343 5.32031 182.187 5.35631 182.031 5.34431C181.887 5.34431 181.731 5.29631 181.587 5.23631C181.371 5.15231 181.179 5.02031 180.999 4.85231V8.39231L181.479 8.76431L182.127 8.32031ZM189.56 8.45231L189.788 8.78831L188 10.0003L186.788 8.90831L187.196 8.50031V5.54831L186.332 4.80431L185.816 5.21231V8.50031L186.332 8.96831L185.18 10.0003L183.8 8.90831L184.268 8.50031V5.32031L183.8 4.80431L183.344 5.09231L183.176 4.85231L184.844 3.71231L185.768 4.74431L187.076 3.71231L188.444 4.87631L188.948 4.46831L189.164 4.72031L188.576 5.20031V8.33231L189.092 8.78831L189.56 8.45231ZM195.072 8.50031L195.132 8.74031L193.464 9.88031L192.54 8.96831L191.28 9.88031C190.788 9.82031 190.308 9.58031 189.996 9.19631C189.78 8.93231 189.648 8.58431 189.66 8.23631C189.672 8.00831 189.756 7.79231 189.876 7.58831C189.984 7.39631 190.14 7.22831 190.308 7.08431C190.548 6.86831 190.812 6.70031 191.1 6.54431C191.04 6.52031 190.98 6.49631 190.92 6.47231C190.644 6.34031 190.392 6.16031 190.224 5.90831C190.14 5.77631 190.08 5.62031 190.068 5.45231C190.056 5.30831 190.092 5.16431 190.152 5.02031C190.212 4.88831 190.308 4.78031 190.416 4.67231C190.536 4.57631 190.68 4.49231 190.824 4.42031L192.144 3.73631L193.908 4.87631L194.4 4.48031L194.604 4.74431L193.98 5.24831V8.27231L194.556 8.84831L195.072 8.50031ZM192.492 6.64031C192.492 6.26831 192.492 5.88431 192.492 5.51231L190.992 4.58831C190.896 4.63631 190.812 4.67231 190.74 4.73231C190.644 4.80431 190.56 4.90031 190.5 4.99631C190.44 5.10431 190.416 5.22431 190.416 5.34431C190.416 5.51231 190.488 5.66831 190.596 5.78831C190.74 5.98031 190.956 6.11231 191.172 6.20831C191.388 6.31631 191.616 6.38831 191.844 6.46031C192.048 6.53231 192.264 6.59231 192.492 6.64031ZM192.492 6.98831C192.252 6.91631 192.012 6.84431 191.772 6.77231C191.616 6.72431 191.46 6.67631 191.304 6.62831C191.22 6.78431 191.148 6.95231 191.124 7.13231C191.064 7.49231 191.148 7.87631 191.316 8.20031C191.4 8.35631 191.496 8.48831 191.628 8.60831C191.76 8.71631 191.916 8.81231 192.084 8.83631C192.216 8.86031 192.36 8.86031 192.492 8.81231C192.492 8.20031 192.492 7.60031 192.492 6.98831ZM197.588 8.39231L198.044 8.84831L198.392 8.56031L198.56 8.78831L197.072 9.83231L195.8 8.74031L195.344 9.02831L195.176 8.78831L195.98 8.27231V2.81231C195.98 2.75231 195.98 2.69231 195.956 2.63231C195.944 2.57231 195.92 2.51231 195.896 2.46431C195.836 2.39231 195.764 2.33231 195.68 2.29631C195.584 2.24831 195.5 2.21231 195.404 2.17631V2.00831L197.36 0.628312H197.588V8.39231ZM202.173 8.45231L202.461 8.68031L200.733 9.88031L199.581 8.84831L199.185 9.13631L199.005 8.90831L199.761 8.39231V5.22431L199.353 4.70831L198.897 4.99631L198.717 4.76831L200.337 3.67631L201.249 4.76831V8.39231L201.657 8.78831L202.173 8.45231ZM199.377 2.05631L200.517 1.04831L201.537 2.21231L200.397 3.22031L199.377 2.05631ZM207.184 3.70031C207.148 4.14431 207.04 4.58831 206.848 4.98431C206.764 5.18831 206.644 5.38031 206.512 5.56031C206.392 5.69231 206.272 5.81231 206.14 5.93231L207.172 6.68831V8.50031L204.808 9.94031C204.688 9.72431 204.484 9.54431 204.256 9.46031C204.136 9.41231 204.016 9.37631 203.896 9.38831C203.764 9.38831 203.644 9.42431 203.536 9.49631C203.464 9.54431 203.404 9.61631 203.38 9.70031C203.344 9.78431 203.344 9.88031 203.368 9.96431C203.404 10.0363 203.452 10.0963 203.524 10.1323L203.404 10.4563C203.116 10.3363 202.876 10.1083 202.756 9.82031C202.636 9.53231 202.636 9.20831 202.72 8.90831C202.864 8.47631 203.176 8.12831 203.5 7.80431C203.596 7.70831 203.692 7.61231 203.8 7.51631L202.888 6.79631V5.11631L205.372 3.67631C205.492 3.86831 205.66 4.02431 205.864 4.12031C205.984 4.16831 206.116 4.20431 206.26 4.20431C206.392 4.20431 206.524 4.15631 206.632 4.08431C206.752 3.98831 206.824 3.85631 206.848 3.70031V3.71231C206.848 3.71231 206.848 3.71231 206.848 3.70031H207.184ZM204.964 6.94031L204.532 7.31231C204.256 7.55231 203.992 7.79231 203.74 8.03231C203.62 8.15231 203.5 8.27231 203.392 8.39231C203.596 8.23631 203.848 8.14031 204.112 8.11631C204.376 8.10431 204.64 8.15231 204.88 8.27231C205.204 8.42831 205.48 8.70431 205.624 9.04031V7.48031L204.964 6.94031ZM204.928 6.53231L205.816 5.76431C205.96 5.64431 206.116 5.51231 206.236 5.35631C206.272 5.30831 206.308 5.26031 206.344 5.21231C206.212 5.27231 206.068 5.30831 205.924 5.33231C205.672 5.36831 205.42 5.33231 205.18 5.22431C204.844 5.08031 204.568 4.79231 204.436 4.45631V6.01631L204.928 6.53231ZM213.821 8.93231L212.501 10.0003L211.313 8.96831L211.817 8.50031V5.54831L210.989 4.79231L210.461 5.10431V8.50031L210.977 8.96831L209.825 10.0003L208.445 8.90831L208.913 8.50031V5.32031L208.445 4.80431L207.989 5.09231L207.821 4.85231L209.489 3.71231L210.365 4.69631L211.937 3.71231L213.137 4.73231L214.781 3.71231L216.029 4.78031L216.425 4.46831L216.641 4.72031L216.041 5.21231V8.22431L216.605 8.78831L217.121 8.40431V8.84831L215.345 10.0003L214.157 8.96831L214.661 8.50031V5.54831L213.833 4.79231L213.197 5.17631V8.38031L213.821 8.93231Z" fill="black"/>
</svg>
